<?xml version="1.0" encoding="UTF-8" standalone="no"?>
<!DOCTYPE svg PUBLIC "-//W3C//DTD SVG 1.1//EN" "http://www.w3.org/Graphics/SVG/1.1/DTD/svg11.dtd">
<svg width="100%" height="100%" viewBox="0 0 500 280" version="1.1" xmlns="http://www.w3.org/2000/svg" xmlns:xlink="http://www.w3.org/1999/xlink" xml:space="preserve" xmlns:serif="http://www.serif.com/" style="fill-rule:evenodd;clip-rule:evenodd;stroke-linejoin:round;stroke-miterlimit:2;">
    <g transform="matrix(0.276132,0,0,0.276132,-95.4927,-158.681)">
        <g transform="matrix(0.673092,0,0,0.512914,458.135,-19.0661)">
            <path d="M386.262,2979.84C386.262,2988.99 386.6,2998.84 387.276,3009.39C387.952,3019.93 389.643,3029.66 392.347,3038.55C395.051,3047.44 399.01,3054.88 404.226,3060.85C409.441,3066.82 416.587,3069.81 425.665,3069.81C430.881,3067.01 434.888,3063.14 437.689,3058.18C440.49,3053.23 443.822,3045.92 447.685,3036.26C451.741,3026.35 454.59,3015.42 456.232,3003.48C457.874,2991.53 458.695,2979.84 458.695,2968.41C458.888,2959.26 458.55,2949.41 457.68,2938.86C456.811,2928.32 455.025,2918.53 452.321,2909.51C449.616,2900.49 445.802,2893.12 440.876,2887.4C435.951,2881.68 429.625,2879.08 421.899,2879.59C414.945,2882.64 410.02,2886.45 407.123,2891.02C404.419,2895.34 401.039,2902.46 396.982,2912.37C393.119,2922.03 390.367,2932.83 388.725,2944.77C387.083,2956.72 386.262,2968.41 386.262,2979.84ZM416.104,3035.12C412.435,3034.1 410.213,3032.83 409.441,3031.31C409.054,3029.53 408.185,3025.33 406.833,3018.73C405.481,3011.87 404.612,3005 404.226,2998.14C403.839,2991.28 403.646,2985.82 403.646,2981.75C403.646,2971.08 404.467,2961.61 406.109,2953.35C407.751,2945.09 410.02,2938.16 412.917,2932.57C415.815,2926.73 418.229,2922.79 420.161,2920.76C422.092,2918.72 424.41,2917.45 427.114,2916.95C429.818,2916.44 431.991,2916.75 433.633,2917.9C435.275,2919.04 436.772,2923.04 438.124,2929.91C439.476,2936.51 440.345,2943.25 440.731,2950.11C441.118,2956.97 441.311,2962.43 441.311,2966.5C441.311,2977.18 440.49,2986.64 438.848,2994.9C437.206,3003.16 434.55,3011.48 430.881,3019.87C427.211,3028 422.285,3033.09 416.104,3035.12Z" style="fill:rgb(103,101,45);fill-rule:nonzero;"/>
            <path d="M477.817,3065.62C477.43,3054.69 477.141,3040.2 476.947,3022.16C476.754,3017.84 476.658,3013.52 476.658,3009.2L476.658,2995.86C476.658,2986.96 476.561,2978.45 476.368,2970.31C476.175,2962.18 476.078,2954.05 476.078,2945.92L476.078,2878.44L530.258,2878.06L528.519,2905.51L500.126,2905.13L500.126,2960.4L523.304,2960.4L523.304,2990.9L497.228,2990.9L497.228,3036.64L496.939,3066L477.817,3065.62Z" style="fill:rgb(103,101,45);fill-rule:nonzero;"/>
            <path d="M687.001,3031.31C687.194,3032.58 687.532,3034.67 688.015,3037.6C688.498,3040.52 688.932,3043.57 689.319,3046.75C689.705,3049.92 690.139,3053.04 690.622,3056.09C691.105,3059.14 691.443,3061.42 691.636,3062.95C691.83,3063.71 692.264,3064.98 692.94,3066.76C693.616,3068.54 694.051,3069.43 694.244,3069.43L715.684,3069.43L689.319,2922.28C689.319,2921.77 689.27,2920.63 689.174,2918.85C689.077,2917.07 689.029,2915.8 689.029,2915.04C689.029,2914.02 689.077,2912.82 689.174,2911.42C689.27,2910.02 689.56,2908.75 690.043,2907.61C690.526,2906.46 691.298,2905.7 692.361,2905.32C693.423,2904.94 694.92,2905.25 696.852,2906.27L696.852,2881.49L661.794,2881.49L618.335,3065.62L638.616,3065.62L641.224,3062.95C641.417,3061.42 641.851,3059.2 642.527,3056.28C643.203,3053.35 643.976,3050.24 644.845,3046.94C645.714,3043.63 646.487,3040.52 647.163,3037.6C647.839,3034.67 648.274,3032.58 648.467,3031.31C648.66,3030.8 648.901,3029.97 649.191,3028.83C649.481,3027.68 650.012,3026.48 650.785,3025.21L679.758,3028.26L684.393,3029.78L687.001,3031.31ZM669.327,2998.52L655.131,2997.76L667.589,2935.24L670.196,2932.19L672.514,2937.91C672.514,2938.16 672.804,2940.2 673.384,2944.01C673.963,2947.82 674.687,2952.33 675.556,2957.54C676.426,2962.75 677.247,2967.96 678.019,2973.17C678.792,2978.38 679.371,2982.51 679.758,2985.56C679.758,2985.82 679.806,2986.51 679.902,2987.66C679.999,2988.8 680.047,2989.76 680.047,2990.52C680.047,2991.28 679.951,2992.68 679.758,2994.71C679.564,2996.74 678.792,2997.76 677.44,2997.76L669.327,2998.52Z" style="fill:rgb(103,101,45);fill-rule:nonzero;"/>
            <path d="M862.866,2878.06C864.025,2895.34 864.604,2905 864.604,2907.03C864.604,2909.07 857.651,2910.08 843.744,2910.08L843.744,3057.61C843.744,3060.91 843.551,3063.84 843.165,3066.38C842.971,3067.9 839.301,3068.92 832.155,3069.43C831.769,3069.43 830.803,3069.36 829.258,3069.24C827.712,3069.11 825.877,3068.66 823.753,3067.9C822.98,3066.89 822.594,3050.62 822.594,3019.11C822.787,3011.23 822.884,3003.1 822.884,2994.71L822.884,2911.61L801.733,2911.23L801.733,2882.64L804.92,2878.82C805.114,2878.82 806.466,2878.76 808.977,2878.63C811.488,2878.51 813.322,2878.44 814.481,2878.44C823.173,2878.44 831.189,2878.63 838.529,2879.01C845.869,2879.4 853.981,2879.08 862.866,2878.06Z" style="fill:rgb(103,101,45);fill-rule:nonzero;"/>
            <path d="M949.495,2882.64C950.461,2913.39 951.282,2944.52 951.958,2976.03C952.634,3007.55 952.972,3039.18 952.972,3070.95L932.111,3070.95L931.242,2990.52C924.289,2985.18 916.949,2984.04 909.223,2987.09L908.933,3070.95L889.521,3070.95C889.135,3056.47 888.7,3041.09 888.217,3024.83C887.734,3008.56 887.3,2991.98 886.914,2975.08C886.527,2958.18 886.141,2941.34 885.755,2924.57C885.368,2907.8 885.079,2891.78 884.885,2876.54L910.382,2876.54L910.382,2952.02L930.083,2955.07C929.89,2945.15 929.745,2935.05 929.649,2924.76C929.552,2914.47 929.504,2903.98 929.504,2893.31C929.697,2891.78 930.276,2889.5 931.242,2886.45C934.139,2883.91 936.65,2882.51 938.775,2882.26C940.9,2882 942.541,2881.87 943.7,2881.87C944.087,2881.87 945.052,2882 946.598,2882.26C948.143,2882.51 949.109,2882.64 949.495,2882.64Z" style="fill:rgb(103,101,45);fill-rule:nonzero;"/>
            <path d="M971.514,2979.84C971.514,2988.99 971.852,2998.84 972.528,3009.39C973.204,3019.93 974.895,3029.66 977.599,3038.55C980.303,3047.44 984.262,3054.88 989.478,3060.85C994.693,3066.82 1001.84,3069.81 1010.92,3069.81C1016.13,3067.01 1020.14,3063.14 1022.94,3058.18C1025.74,3053.23 1029.07,3045.92 1032.94,3036.26C1036.99,3026.35 1039.84,3015.42 1041.48,3003.48C1043.13,2991.53 1043.95,2979.84 1043.95,2968.41C1044.14,2959.26 1043.8,2949.41 1042.93,2938.86C1042.06,2928.32 1040.28,2918.53 1037.57,2909.51C1034.87,2900.49 1031.05,2893.12 1026.13,2887.4C1021.2,2881.68 1014.88,2879.08 1007.15,2879.59C1000.2,2882.64 995.272,2886.45 992.375,2891.02C989.671,2895.34 986.291,2902.46 982.234,2912.37C978.371,2922.03 975.619,2932.83 973.977,2944.77C972.335,2956.72 971.514,2968.41 971.514,2979.84ZM1001.36,3035.12C997.687,3034.1 995.465,3032.83 994.693,3031.31C994.306,3029.53 993.437,3025.33 992.085,3018.73C990.733,3011.87 989.864,3005 989.478,2998.14C989.091,2991.28 988.898,2985.82 988.898,2981.75C988.898,2971.08 989.719,2961.61 991.361,2953.35C993.003,2945.09 995.272,2938.16 998.169,2932.57C1001.07,2926.73 1003.48,2922.79 1005.41,2920.76C1007.34,2918.72 1009.66,2917.45 1012.37,2916.95C1015.07,2916.44 1017.24,2916.75 1018.88,2917.9C1020.53,2919.04 1022.02,2923.04 1023.38,2929.91C1024.73,2936.51 1025.6,2943.25 1025.98,2950.11C1026.37,2956.97 1026.56,2962.43 1026.56,2966.5C1026.56,2977.18 1025.74,2986.64 1024.1,2994.9C1022.46,3003.16 1019.8,3011.48 1016.13,3019.87C1012.46,3028 1007.54,3033.09 1001.36,3035.12Z" style="fill:rgb(103,101,45);fill-rule:nonzero;"/>
            <path d="M1065.97,2881.87L1088.28,2883.4C1088.28,2897.88 1088.08,2912.88 1087.7,2928.38C1087.31,2943.88 1087.12,2957.35 1087.12,2968.79C1087.12,2977.94 1087.5,2986.83 1088.28,2995.47C1089.05,3004.11 1090.88,3012.37 1093.78,3020.25C1096.87,3028.13 1100.44,3032.83 1104.5,3034.36C1107.59,3033.34 1109.71,3032.32 1110.87,3031.31C1112.03,3030.29 1113.58,3026.22 1115.51,3019.11C1117.44,3011.99 1119.18,2966.25 1120.73,2881.87L1145.06,2883.4L1141.59,2999.28C1139.27,3021.65 1136.56,3036.9 1133.47,3045.03C1130.38,3053.67 1125.94,3060.02 1120.14,3064.09C1114.54,3067.9 1107.2,3069.81 1098.13,3069.81C1092.91,3067.01 1088.9,3063.14 1086.1,3058.18C1083.3,3053.23 1079.87,3045.92 1075.82,3036.26C1071.95,3026.35 1069.2,3015.42 1067.56,3003.48C1065.92,2991.53 1065.1,2979.84 1065.1,2968.41C1065.1,2963.83 1065.14,2958.81 1065.24,2953.35C1065.34,2947.89 1065.43,2941.72 1065.53,2934.86C1065.63,2928 1065.72,2920.25 1065.82,2911.61C1065.92,2902.97 1065.97,2893.06 1065.97,2881.87Z" style="fill:rgb(103,101,45);fill-rule:nonzero;"/>
            <path d="M1167.66,3038.17C1167.27,3051.13 1169.21,3060.15 1173.45,3065.23C1177.7,3070.32 1184.46,3072.86 1193.74,3072.86C1199.34,3072.86 1204.65,3071.84 1209.67,3069.81C1214.69,3067.78 1219.04,3064.79 1222.71,3060.85C1226.38,3056.91 1229.28,3051.95 1231.4,3045.98C1233.53,3040.01 1234.59,3032.96 1234.59,3024.83C1234.59,3016.19 1233.28,3008.24 1230.68,3001C1228.07,2993.76 1224.79,2986.96 1220.83,2980.61C1216.87,2974.25 1212.47,2968.28 1207.64,2962.69C1202.81,2957.1 1198.18,2951.76 1193.74,2946.68C1192,2944.39 1191.03,2941.98 1190.84,2939.44C1190.65,2936.89 1190.55,2934.23 1190.55,2931.43C1190.55,2925.84 1191.56,2921.39 1193.59,2918.09C1195.62,2914.78 1198.23,2912.18 1201.41,2910.27C1204.6,2908.37 1208.08,2907.03 1211.84,2906.27C1215.61,2905.51 1219.23,2905 1222.71,2904.75C1222.9,2903.98 1223.14,2902.71 1223.43,2900.93C1223.72,2899.16 1224.01,2897.25 1224.3,2895.22C1224.59,2893.18 1224.88,2891.28 1225.17,2889.5C1225.46,2887.72 1225.61,2886.45 1225.61,2885.69C1225.61,2885.43 1225.65,2884.73 1225.75,2883.59C1225.85,2882.45 1225.9,2881.62 1225.9,2881.11C1225.9,2878.82 1225.27,2877.17 1224.01,2876.16C1222.76,2875.14 1221.26,2874.44 1219.52,2874.06C1217.78,2873.68 1216,2873.55 1214.16,2873.68C1212.33,2873.8 1210.83,2873.87 1209.67,2873.87C1204.07,2873.87 1198.71,2875.08 1193.59,2877.49C1188.47,2879.9 1183.98,2883.27 1180.12,2887.59C1176.26,2891.91 1173.17,2897.25 1170.85,2903.6C1168.53,2909.96 1167.37,2917.07 1167.37,2924.95C1167.37,2936.39 1169.5,2945.98 1173.75,2953.73C1177.99,2961.48 1182.73,2968.6 1187.94,2975.08C1193.16,2981.56 1197.89,2988.17 1202.14,2994.9C1206.39,3001.64 1208.51,3009.7 1208.51,3019.11C1208.51,3034.61 1202.72,3042.36 1191.13,3042.36C1187.46,3042.36 1183.98,3041.66 1180.7,3040.26C1177.41,3038.87 1174.04,3038.17 1170.56,3038.17L1167.66,3038.17Z" style="fill:rgb(103,101,45);fill-rule:nonzero;"/>
            <path d="M1322.09,3031.31C1322.28,3032.58 1322.62,3034.67 1323.1,3037.6C1323.58,3040.52 1324.02,3043.57 1324.4,3046.75C1324.79,3049.92 1325.23,3053.04 1325.71,3056.09C1326.19,3059.14 1326.53,3061.42 1326.72,3062.95C1326.91,3063.71 1327.35,3064.98 1328.03,3066.76C1328.7,3068.54 1329.14,3069.43 1329.33,3069.43L1350.77,3069.43L1324.4,2922.28C1324.4,2921.77 1324.36,2920.63 1324.26,2918.85C1324.16,2917.07 1324.11,2915.8 1324.11,2915.04C1324.11,2914.02 1324.16,2912.82 1324.26,2911.42C1324.36,2910.02 1324.64,2908.75 1325.13,2907.61C1325.61,2906.46 1326.38,2905.7 1327.45,2905.32C1328.51,2904.94 1330.01,2905.25 1331.94,2906.27L1331.94,2881.49L1296.88,2881.49L1253.42,3065.62L1273.7,3065.62L1276.31,3062.95C1276.5,3061.42 1276.94,3059.2 1277.61,3056.28C1278.29,3053.35 1279.06,3050.24 1279.93,3046.94C1280.8,3043.63 1281.57,3040.52 1282.25,3037.6C1282.92,3034.67 1283.36,3032.58 1283.55,3031.31C1283.75,3030.8 1283.99,3029.97 1284.28,3028.83C1284.57,3027.68 1285.1,3026.48 1285.87,3025.21L1314.84,3028.26L1319.48,3029.78L1322.09,3031.31ZM1304.41,2998.52L1290.22,2997.76L1302.67,2935.24L1305.28,2932.19L1307.6,2937.91C1307.6,2938.16 1307.89,2940.2 1308.47,2944.01C1309.05,2947.82 1309.77,2952.33 1310.64,2957.54C1311.51,2962.75 1312.33,2967.96 1313.11,2973.17C1313.88,2978.38 1314.46,2982.51 1314.84,2985.56C1314.84,2985.82 1314.89,2986.51 1314.99,2987.66C1315.08,2988.8 1315.13,2989.76 1315.13,2990.52C1315.13,2991.28 1315.04,2992.68 1314.84,2994.71C1314.65,2996.74 1313.88,2997.76 1312.53,2997.76L1304.41,2998.52Z" style="fill:rgb(103,101,45);fill-rule:nonzero;"/>
            <path d="M1371.05,2897.88C1370.09,2926.35 1369.26,2954.94 1368.59,2983.66C1367.91,3012.37 1367.57,3040.96 1367.57,3069.43L1388.43,3069.43L1388.43,2981.75L1411.61,3069.43L1429,3069.43C1429.77,3054.69 1430.54,3039.18 1431.31,3022.92C1432.09,3006.66 1432.81,2990.14 1433.49,2973.36C1434.16,2956.59 1434.69,2939.88 1435.08,2923.24C1435.47,2906.59 1435.66,2890.51 1435.66,2875.01L1410.16,2875.01L1410.16,2977.94C1409.78,2977.43 1409.05,2976.22 1407.99,2974.32C1406.93,2972.41 1406.2,2971.08 1405.82,2970.31C1405.05,2967.77 1403.69,2963.26 1401.76,2956.78C1399.83,2950.3 1397.8,2943.38 1395.68,2936.01C1393.55,2928.64 1391.52,2921.71 1389.59,2915.23C1387.66,2908.75 1386.31,2904.24 1385.54,2901.7C1385.15,2899.16 1383.89,2897.82 1381.77,2897.69C1379.65,2897.57 1378,2897.5 1376.85,2897.5C1376.46,2897.5 1375.49,2897.57 1373.95,2897.69C1372.4,2897.82 1371.44,2897.88 1371.05,2897.88Z" style="fill:rgb(103,101,45);fill-rule:nonzero;"/>
            <path d="M1522.58,2979.84C1522.58,2988.99 1522.24,2998.84 1521.56,3009.39C1520.89,3019.93 1519.2,3029.66 1516.49,3038.55C1513.79,3047.44 1509.83,3054.88 1504.62,3060.85C1499.4,3066.82 1492.25,3069.81 1483.17,3069.81L1460,3071.33C1459.8,3064.98 1459.61,3059.83 1459.42,3055.89C1459.22,3051.95 1459.03,3049.22 1458.84,3047.7L1456.23,2877.3L1471.3,2877.3C1481.15,2878.06 1489.36,2881.68 1495.92,2888.16C1502.49,2894.64 1507.75,2902.71 1511.71,2912.37C1515.67,2922.03 1518.47,2932.76 1520.12,2944.58C1521.76,2956.4 1522.58,2968.15 1522.58,2979.84ZM1473.61,2915.42C1473.23,2999.54 1473.42,3041.73 1474.19,3041.98C1474.97,3042.74 1476.03,3043.12 1477.38,3043.12C1478.15,3043.12 1479.12,3043.06 1480.28,3042.93C1481.44,3042.81 1482.79,3042.62 1484.33,3042.36C1489.74,3039.82 1493.61,3036.9 1495.92,3033.59C1498.24,3030.29 1500.08,3025.33 1501.43,3018.73C1502.78,3011.87 1503.65,3005 1504.04,2998.14C1504.42,2991.28 1504.62,2985.82 1504.62,2981.75C1505.19,2971.08 1504.37,2961.61 1502.15,2953.35C1499.93,2945.09 1497.13,2938.1 1493.75,2932.38C1490.37,2926.67 1486.8,2922.35 1483.03,2919.42C1479.26,2916.5 1476.12,2915.17 1473.61,2915.42Z" style="fill:rgb(103,101,45);fill-rule:nonzero;"/>
            <path d="M1676.13,2882.64C1677.1,2913.39 1677.92,2944.52 1678.6,2976.03C1679.27,3007.55 1679.61,3039.18 1679.61,3070.95L1658.75,3070.95L1657.88,2990.52C1650.93,2985.18 1643.59,2984.04 1635.86,2987.09L1635.57,3070.95L1616.16,3070.95C1615.77,3056.47 1615.34,3041.09 1614.86,3024.83C1614.37,3008.56 1613.94,2991.98 1613.55,2975.08C1613.17,2958.18 1612.78,2941.34 1612.39,2924.57C1612.01,2907.8 1611.72,2891.78 1611.53,2876.54L1637.02,2876.54L1637.02,2952.02L1656.72,2955.07C1656.53,2945.15 1656.38,2935.05 1656.29,2924.76C1656.19,2914.47 1656.14,2903.98 1656.14,2893.31C1656.34,2891.78 1656.92,2889.5 1657.88,2886.45C1660.78,2883.91 1663.29,2882.51 1665.41,2882.26C1667.54,2882 1669.18,2881.87 1670.34,2881.87C1670.73,2881.87 1671.69,2882 1673.24,2882.26C1674.78,2882.51 1675.75,2882.64 1676.13,2882.64Z" style="fill:rgb(103,101,45);fill-rule:nonzero;"/>
            <path d="M1703.37,2889.88C1702.6,2891.66 1702.21,2913.51 1702.21,2955.45C1702.4,2966.12 1702.5,2976.16 1702.5,2985.56L1702.5,3060.28C1708.49,3061.55 1715.44,3061.55 1723.36,3060.28L1723.36,2903.98C1723.36,2901.19 1723.31,2898.84 1723.22,2896.93C1723.12,2895.03 1722.97,2893.44 1722.78,2892.17C1722.59,2890.13 1718.92,2888.86 1711.77,2888.35C1711.38,2888.35 1710.42,2888.42 1708.87,2888.55C1707.33,2888.67 1705.49,2889.12 1703.37,2889.88Z" style="fill:rgb(103,101,45);fill-rule:nonzero;"/>
            <path d="M1763.92,2879.59C1757.36,2879.59 1752.77,2880.03 1750.16,2880.92C1747.55,2881.81 1746.06,2883.02 1745.67,2884.54C1745.48,2884.8 1745.38,2893.82 1745.38,2911.61L1743.64,3012.25C1743.64,3013.77 1743.59,3016.31 1743.5,3019.87C1743.4,3023.43 1743.35,3027.49 1743.35,3032.07C1743.35,3036.39 1743.3,3040.84 1743.21,3045.41C1743.11,3049.99 1743.06,3054.18 1743.06,3057.99L1743.06,3069.43L1792.89,3069.43L1795.79,3042.74L1763.92,3042.74L1763.92,2879.59Z" style="fill:rgb(103,101,45);fill-rule:nonzero;"/>
            <path d="M1839.25,2879.59C1832.68,2879.59 1828.1,2880.03 1825.49,2880.92C1822.88,2881.81 1821.38,2883.02 1821,2884.54C1820.81,2884.8 1820.71,2893.82 1820.71,2911.61L1818.97,3012.25C1818.97,3013.77 1818.92,3016.31 1818.83,3019.87C1818.73,3023.43 1818.68,3027.49 1818.68,3032.07C1818.68,3036.39 1818.63,3040.84 1818.54,3045.41C1818.44,3049.99 1818.39,3054.18 1818.39,3057.99L1818.39,3069.43L1868.23,3069.43L1871.12,3042.74L1839.25,3042.74L1839.25,2879.59Z" style="fill:rgb(103,101,45);fill-rule:nonzero;"/>
            <path d="M1894.3,3038.17C1893.91,3051.13 1895.85,3060.15 1900.1,3065.23C1904.34,3070.32 1911.11,3072.86 1920.38,3072.86C1925.98,3072.86 1931.29,3071.84 1936.31,3069.81C1941.33,3067.78 1945.68,3064.79 1949.35,3060.85C1953.02,3056.91 1955.92,3051.95 1958.04,3045.98C1960.16,3040.01 1961.23,3032.96 1961.23,3024.83C1961.23,3016.19 1959.92,3008.24 1957.32,3001C1954.71,2993.76 1951.42,2986.96 1947.47,2980.61C1943.51,2974.25 1939.11,2968.28 1934.28,2962.69C1929.45,2957.1 1924.82,2951.76 1920.38,2946.68C1918.64,2944.39 1917.67,2941.98 1917.48,2939.44C1917.29,2936.89 1917.19,2934.23 1917.19,2931.43C1917.19,2925.84 1918.2,2921.39 1920.23,2918.09C1922.26,2914.78 1924.87,2912.18 1928.05,2910.27C1931.24,2908.37 1934.72,2907.03 1938.48,2906.27C1942.25,2905.51 1945.87,2905 1949.35,2904.75C1949.54,2903.98 1949.78,2902.71 1950.07,2900.93C1950.36,2899.16 1950.65,2897.25 1950.94,2895.22C1951.23,2893.18 1951.52,2891.28 1951.81,2889.5C1952.1,2887.72 1952.25,2886.45 1952.25,2885.69C1952.25,2885.43 1952.29,2884.73 1952.39,2883.59C1952.49,2882.45 1952.54,2881.62 1952.54,2881.11C1952.54,2878.82 1951.91,2877.17 1950.65,2876.16C1949.4,2875.14 1947.9,2874.44 1946.16,2874.06C1944.42,2873.68 1942.64,2873.55 1940.8,2873.68C1938.97,2873.8 1937.47,2873.87 1936.31,2873.87C1930.71,2873.87 1925.35,2875.08 1920.23,2877.49C1915.11,2879.9 1910.62,2883.27 1906.76,2887.59C1902.9,2891.91 1899.81,2897.25 1897.49,2903.6C1895.17,2909.96 1894.01,2917.07 1894.01,2924.95C1894.01,2936.39 1896.13,2945.98 1900.38,2953.73C1904.63,2961.48 1909.37,2968.6 1914.58,2975.08C1919.8,2981.56 1924.53,2988.17 1928.78,2994.9C1933.03,3001.64 1935.15,3009.7 1935.15,3019.11C1935.15,3034.61 1929.36,3042.36 1917.77,3042.36C1914.1,3042.36 1910.62,3041.66 1907.34,3040.26C1904.06,3038.87 1900.67,3038.17 1897.2,3038.17L1894.3,3038.17Z" style="fill:rgb(103,101,45);fill-rule:nonzero;"/>
        </g>
        <g transform="matrix(1.18789,0,0,0.951635,-61.0038,-1532.76)">
            <path d="M389.304,2868.91C388.12,2901.95 387.134,2935.24 386.344,2968.79C385.555,3002.34 385.16,3035.88 385.16,3069.43L410.322,3069.43L410.322,2966.88L437.852,3069.43L458.573,3069.43C459.56,3052.15 460.546,3033.97 461.533,3014.91C462.52,2995.86 463.359,2976.54 464.049,2956.97C464.74,2937.4 465.332,2917.9 465.825,2898.46C466.319,2879.01 466.566,2860.14 466.566,2841.85L436.075,2841.85L436.075,2962.31C435.681,2961.8 434.842,2960.4 433.559,2958.12C432.277,2955.83 431.438,2954.3 431.043,2953.54C430.056,2950.49 428.379,2945.15 426.011,2937.53C423.643,2929.91 421.176,2921.84 418.61,2913.32C416.045,2904.81 413.627,2896.74 411.358,2889.12C409.088,2881.49 407.559,2876.16 406.77,2873.11C406.177,2870.31 404.648,2868.79 402.181,2868.53C399.714,2868.28 397.79,2868.15 396.409,2868.15C395.817,2868.15 394.633,2868.28 392.857,2868.53C391.08,2868.79 389.896,2868.91 389.304,2868.91Z" style="fill:rgb(103,101,45);fill-rule:nonzero;stroke:rgb(103,101,45);stroke-width:7.01px;"/>
        </g>
        <g transform="matrix(1.24682,0,0,1.08994,-69.9124,-1957.28)">
            <path d="M556.852,3023.68L553.891,3019.87L512.449,3016.06C512.251,3016.06 511.807,3017.01 511.117,3018.92C510.426,3020.82 509.883,3022.41 509.488,3023.68C509.094,3025.21 508.452,3027.75 507.564,3031.31C506.676,3034.87 505.739,3038.61 504.752,3042.55C503.765,3046.49 502.877,3050.3 502.088,3053.99C501.299,3057.67 500.805,3060.28 500.608,3061.8L497.648,3065.62L472.19,3065.62L526.066,2840.7L568.692,2840.7L568.692,2871.2C566.324,2869.93 564.499,2869.55 563.216,2870.06C561.933,2870.57 560.996,2871.52 560.404,2872.91C559.812,2874.31 559.466,2875.84 559.368,2877.49C559.269,2879.14 559.22,2880.6 559.22,2881.87C559.22,2882.89 559.318,2884.41 559.516,2886.45C559.713,2888.48 559.812,2889.75 559.812,2890.26L592.078,3069.43L565.732,3069.43C565.535,3069.43 565.042,3068.47 564.252,3066.57C563.463,3064.66 562.969,3063.07 562.772,3061.8C562.377,3060.28 561.884,3057.74 561.292,3054.18C560.7,3050.62 560.108,3046.81 559.516,3042.74C558.924,3038.68 558.381,3034.87 557.888,3031.31C557.394,3027.75 557.049,3025.21 556.852,3023.68ZM517.777,2981.75L545.011,2981.75C546.787,2981.75 547.774,2980.48 547.971,2977.94C548.168,2975.4 548.267,2973.62 548.267,2972.6C548.267,2971.84 548.218,2970.7 548.119,2969.17C548.02,2967.64 547.971,2966.76 547.971,2966.5C547.379,2962.43 546.59,2957.03 545.603,2950.3C544.616,2943.57 543.679,2936.96 542.791,2930.48C541.903,2924 541.113,2918.34 540.423,2913.51C539.732,2908.68 539.288,2906.02 539.09,2905.51L536.13,2897.88L533.17,2901.7L517.777,2981.75Z" style="fill:rgb(103,101,45);fill-rule:nonzero;stroke:rgb(103,101,45);stroke-width:6.44px;"/>
        </g>
        <g transform="matrix(1.18015,0,0,0.806861,-24.6143,-1091.39)">
            <path d="M677.332,3042.74C680.292,3031.31 682.808,3021.78 684.88,3014.15C686.952,3006.53 688.581,3000.56 689.765,2996.24C691.146,2991.91 692.429,2987.79 693.613,2983.85C694.797,2979.91 696.08,2976.03 697.461,2972.22C698.645,2968.41 699.583,2965.17 700.273,2962.5C700.964,2959.83 701.605,2957.73 702.197,2956.21C702.592,2955.19 703.431,2953.6 704.714,2951.44C705.996,2949.28 706.835,2947.82 707.23,2947.06L707.23,3067.52L737.72,3067.52C737.72,3049.48 737.473,3030.74 736.98,3011.29C736.486,2991.85 735.845,2972.35 735.056,2952.78C734.266,2933.21 733.428,2913.89 732.539,2894.84C731.651,2875.78 730.813,2857.6 730.023,2840.32L709.006,2840.32L677.332,2946.3L673.187,2955.07L637.961,2847.18L617.24,2847.18C616.253,2864.47 615.266,2882.64 614.28,2901.7C613.293,2920.76 612.454,2940.07 611.763,2959.64C611.073,2979.21 610.481,2998.71 609.987,3018.16C609.494,3037.6 609.247,3056.47 609.247,3074.76L639.737,3074.76L639.737,2954.3C640.329,2955.07 641.217,2956.53 642.401,2958.69C643.585,2960.85 644.474,2962.43 645.066,2963.45C646.052,2966.25 647.631,2971.39 649.802,2978.89C651.973,2986.39 654.44,2994.58 657.202,3003.48C659.965,3012.12 661.889,3019.3 662.975,3025.02C664.06,3030.74 665.59,3036.64 667.563,3042.74C671.313,3046.3 674.569,3046.3 677.332,3042.74Z" style="fill:rgb(103,101,45);fill-rule:nonzero;stroke:rgb(103,101,45);stroke-width:7.46px;"/>
        </g>
        <g transform="matrix(0.958905,0,0,0.930469,152.761,-1472.31)">
            <path d="M767.914,3023.3C767.914,3008.56 767.963,2994.58 768.062,2981.37C768.161,2968.15 768.358,2954.94 768.654,2941.72C768.95,2928.51 769.345,2915.04 769.838,2901.32C770.331,2887.59 770.874,2872.72 771.466,2856.71L800.476,2856.71C800.476,2874.25 800.229,2891.98 799.736,2909.89C799.243,2927.81 798.601,2945.92 797.812,2964.21C797.023,2982.51 796.332,3000.81 795.74,3019.11C795.148,3037.41 794.062,3054.18 792.484,3069.43L771.466,3069.43L768.21,3056.85L768.21,3052.65C768.21,3049.86 768.161,3046.62 768.062,3042.93C767.963,3039.25 767.914,3035.63 767.914,3032.07L767.914,3023.3Z" style="fill:rgb(103,101,45);fill-rule:nonzero;stroke:rgb(103,101,45);stroke-width:7.99px;"/>
        </g>
        <g transform="matrix(1.18878,0,0,1.01711,-24.9395,-1735.01)">
            <path d="M821.197,2841.47L821.79,2880.35L821.79,2913.89C821.79,2916.69 821.839,2920.57 821.938,2925.52C822.036,2930.48 822.184,2936.26 822.382,2942.87C822.579,2949.47 822.776,2956.59 822.974,2964.21C823.171,2971.84 823.368,2979.59 823.566,2987.47C823.96,3000.43 824.256,3011.87 824.454,3021.78C824.651,3031.69 824.75,3041.22 824.75,3050.37L824.75,3064.47C824.75,3066 824.651,3067.65 824.454,3069.43C827.809,3069.43 831.953,3069.55 836.887,3069.81C841.82,3070.06 846.557,3070.19 851.095,3070.19C858.792,3070.19 866.094,3068.86 873.001,3066.19C879.908,3063.52 885.977,3059.52 891.206,3054.18C896.436,3048.84 900.58,3042.11 903.639,3033.97C906.698,3025.84 908.227,3016.31 908.227,3005.39C908.227,2997.25 907.241,2989.76 905.267,2982.89C903.294,2976.03 900.679,2969.62 897.423,2963.64C894.166,2957.67 890.466,2952.02 886.322,2946.68C882.178,2941.34 877.935,2936.26 873.593,2931.43L873.593,2927.24L875.665,2923.04C878.428,2918.47 880.993,2914.4 883.362,2910.85C885.73,2907.29 888.295,2903.35 891.058,2899.03C893.821,2894.71 895.893,2889.05 897.275,2882.06C898.656,2875.08 898.656,2868.79 897.275,2863.2C895.696,2857.86 892.884,2853.41 888.838,2849.85C884.792,2846.3 881.092,2844.01 877.737,2842.99C875.566,2841.47 869.449,2840.96 859.384,2841.47C858.397,2841.72 857.312,2841.85 856.128,2841.85L826.526,2841.85C824.947,2841.85 823.171,2841.72 821.197,2841.47ZM846.063,3029.78L846.063,2952.4C850.997,2952.4 855.585,2953.67 859.828,2956.21C864.071,2958.75 867.821,2962.18 871.077,2966.5C874.333,2970.82 876.899,2975.71 878.773,2981.18C880.648,2986.64 881.586,2992.42 881.586,2998.52C881.586,2999.28 881.536,3000.49 881.438,3002.14C881.339,3003.8 881.24,3005.58 881.142,3007.48C881.043,3009.39 880.944,3011.17 880.845,3012.82C880.747,3014.47 880.697,3015.68 880.697,3016.44C877.935,3022.03 874.037,3025.72 869.005,3027.49C863.972,3029.27 859.187,3030.16 854.648,3030.16C853.858,3030.16 852.378,3030.1 850.207,3029.97C848.037,3029.85 846.655,3029.78 846.063,3029.78ZM846.063,2867.39C864.022,2869.42 872.31,2873.23 870.929,2878.82C870.139,2882.38 868.215,2887.47 865.156,2894.07C862.098,2900.68 858.003,2908.81 852.872,2918.47L844.879,2917.71L846.063,2867.39Z" style="fill:rgb(103,101,45);fill-rule:nonzero;stroke:rgb(103,101,45);stroke-width:6.82px;"/>
        </g>
        <g transform="matrix(1.23739,0,0,0.934863,-67.8976,-1486.37)">
            <path d="M931.909,2888.74C939.803,2902.71 948.881,2902.71 959.143,2888.74L960.919,2841.85L930.429,2841.85C930.429,2851 930.577,2859.45 930.873,2867.2C931.169,2874.95 931.514,2882.13 931.909,2888.74Z" style="fill:rgb(103,101,45);fill-rule:nonzero;stroke:rgb(103,101,45);stroke-width:6.88px;"/>
        </g>
        <g transform="matrix(1.18948,0,0,0.948988,-17.8957,-1525.2)">
            <path d="M986.673,3032.83C986.081,3048.08 988.301,3058.69 993.333,3064.66C998.365,3070.64 1006.51,3073.62 1017.75,3073.62C1024.46,3073.62 1030.78,3072.41 1036.7,3070C1042.62,3067.59 1047.8,3064.03 1052.24,3059.33C1056.68,3054.62 1060.18,3048.78 1062.75,3041.79C1065.32,3034.8 1066.6,3026.61 1066.6,3017.2C1066.6,3007.29 1065.07,2998.01 1062.01,2989.37C1058.95,2980.73 1055.05,2972.73 1050.32,2965.36C1045.58,2957.99 1040.3,2951 1034.48,2944.39C1028.66,2937.78 1023.08,2931.56 1017.75,2925.71C1015.58,2922.92 1014.4,2920.12 1014.2,2917.33C1014,2914.53 1013.91,2911.35 1013.91,2907.8C1013.91,2901.44 1015.14,2896.3 1017.61,2892.36C1020.07,2888.42 1023.18,2885.37 1026.93,2883.21C1030.68,2881.05 1034.83,2879.52 1039.36,2878.63C1043.9,2877.74 1048.25,2877.17 1052.39,2876.92C1052.59,2876.16 1052.88,2874.69 1053.28,2872.53C1053.67,2870.37 1054.07,2868.09 1054.46,2865.67C1054.86,2863.26 1055.2,2860.97 1055.5,2858.81C1055.79,2856.65 1055.94,2855.19 1055.94,2854.43C1055.94,2854.17 1055.99,2853.41 1056.09,2852.14C1056.19,2850.87 1056.24,2849.85 1056.24,2849.09C1056.24,2846.55 1055.5,2844.64 1054.02,2843.37C1052.54,2842.1 1050.76,2841.28 1048.69,2840.89C1046.62,2840.51 1044.45,2840.39 1042.18,2840.51C1039.91,2840.64 1038.08,2840.7 1036.7,2840.7C1029.99,2840.7 1023.63,2842.1 1017.61,2844.9C1011.59,2847.69 1006.26,2851.63 1001.62,2856.71C996.984,2861.8 993.284,2868.02 990.521,2875.39C987.758,2882.76 986.377,2891.15 986.377,2900.55C986.377,2909.45 987.61,2917.33 990.077,2924.19C992.544,2931.05 995.553,2937.34 999.105,2943.06C1002.66,2948.78 1006.61,2954.11 1010.95,2959.07C1015.29,2964.02 1019.24,2969.11 1022.79,2974.32C1026.34,2979.53 1029.35,2985.05 1031.82,2990.9C1034.28,2996.74 1035.52,3003.35 1035.52,3010.72C1035.52,3019.36 1033.74,3026.03 1030.19,3030.74C1026.63,3035.44 1021.41,3037.79 1014.5,3037.79C1010.16,3037.79 1006.01,3036.96 1002.07,3035.31C998.119,3033.66 994.073,3032.83 989.929,3032.83L986.673,3032.83Z" style="fill:rgb(103,101,45);fill-rule:nonzero;stroke:rgb(103,101,45);stroke-width:7.01px;"/>
        </g>
        <g transform="matrix(1.24404,0,0,0.916943,-82.1153,-1429.86)">
            <path d="M1160.73,2867.01L1195.37,3063.33C1195.96,3066.38 1196.35,3068.79 1196.55,3070.57C1196.75,3072.35 1197.09,3073.75 1197.59,3074.76C1198.08,3075.78 1198.72,3076.42 1199.51,3076.67C1200.3,3076.92 1201.58,3077.05 1203.36,3077.05C1210.07,3077.05 1214.31,3072.48 1216.09,3063.33L1254.87,2835.75L1222.9,2835.75L1219.64,2844.52C1219.25,2846.8 1218.75,2850.42 1218.16,2855.38C1217.57,2860.34 1216.93,2865.93 1216.24,2872.15C1215.55,2878.38 1214.81,2884.86 1214.02,2891.6C1213.23,2898.33 1212.49,2904.81 1211.8,2911.04C1211.11,2917.26 1210.51,2922.79 1210.02,2927.62C1209.53,2932.45 1209.18,2936.01 1208.98,2938.29C1208.98,2939.05 1208.84,2940.52 1208.54,2942.68C1208.24,2944.84 1207.9,2947.19 1207.5,2949.73C1207.11,2952.27 1206.76,2954.56 1206.47,2956.59C1206.17,2958.62 1205.92,2960.02 1205.73,2960.78L1202.17,2956.21L1188.26,2867.01C1187.87,2864.47 1186.98,2863.07 1185.6,2862.81C1184.22,2862.56 1182.93,2862.43 1181.75,2862.43L1177.9,2862.43C1177.31,2862.43 1176.17,2862.62 1174.5,2863C1172.82,2863.39 1171.09,2863.83 1169.32,2864.34C1167.54,2864.85 1165.81,2865.36 1164.14,2865.86C1162.46,2866.37 1161.32,2866.75 1160.73,2867.01Z" style="fill:rgb(103,101,45);fill-rule:nonzero;stroke:rgb(103,101,45);stroke-width:6.9px;"/>
        </g>
        <g transform="matrix(1.25549,0,0,0.865336,-60.1532,-1272.39)">
            <path d="M1321.17,3023.68L1318.21,3019.87L1276.77,3016.06C1276.58,3016.06 1276.13,3017.01 1275.44,3018.92C1274.75,3020.82 1274.21,3022.41 1273.81,3023.68C1273.42,3025.21 1272.78,3027.75 1271.89,3031.31C1271,3034.87 1270.06,3038.61 1269.08,3042.55C1268.09,3046.49 1267.2,3050.3 1266.41,3053.99C1265.62,3057.67 1265.13,3060.28 1264.93,3061.8L1261.97,3065.62L1236.51,3065.62L1290.39,2840.7L1333.02,2840.7L1333.02,2871.2C1330.65,2869.93 1328.82,2869.55 1327.54,2870.06C1326.26,2870.57 1325.32,2871.52 1324.73,2872.91C1324.13,2874.31 1323.79,2875.84 1323.69,2877.49C1323.59,2879.14 1323.54,2880.6 1323.54,2881.87C1323.54,2882.89 1323.64,2884.41 1323.84,2886.45C1324.04,2888.48 1324.13,2889.75 1324.13,2890.26L1356.4,3069.43L1330.06,3069.43C1329.86,3069.43 1329.37,3068.47 1328.58,3066.57C1327.79,3064.66 1327.29,3063.07 1327.1,3061.8C1326.7,3060.28 1326.21,3057.74 1325.62,3054.18C1325.02,3050.62 1324.43,3046.81 1323.84,3042.74C1323.25,3038.68 1322.7,3034.87 1322.21,3031.31C1321.72,3027.75 1321.37,3025.21 1321.17,3023.68ZM1282.1,2981.75L1309.33,2981.75C1311.11,2981.75 1312.1,2980.48 1312.3,2977.94C1312.49,2975.4 1312.59,2973.62 1312.59,2972.6C1312.59,2971.84 1312.54,2970.7 1312.44,2969.17C1312.34,2967.64 1312.3,2966.76 1312.3,2966.5C1311.7,2962.43 1310.91,2957.03 1309.93,2950.3C1308.94,2943.57 1308,2936.96 1307.11,2930.48C1306.23,2924 1305.44,2918.34 1304.75,2913.51C1304.06,2908.68 1303.61,2906.02 1303.41,2905.51L1300.45,2897.88L1297.49,2901.7L1282.1,2981.75Z" style="fill:rgb(103,101,45);fill-rule:nonzero;stroke:rgb(103,101,45);stroke-width:7px;"/>
        </g>
        <g transform="matrix(1.15615,0,0,1.06575,79.5515,-1887.53)">
            <path d="M1398.73,2847.18C1393.01,2847.18 1388.77,2847.44 1386,2847.95C1383.24,2848.45 1381.07,2849.09 1379.49,2849.85C1377.91,2851.12 1377.02,2852.27 1376.83,2853.28C1376.63,2853.54 1376.53,2864.08 1376.53,2884.92L1374.46,3002.72C1374.46,3004.49 1374.41,3007.48 1374.31,3011.68C1374.21,3015.87 1374.11,3020.51 1374.02,3025.59C1373.92,3030.67 1373.82,3035.95 1373.72,3041.41C1373.62,3046.87 1373.57,3051.76 1373.57,3056.09L1373.57,3069.43L1433.37,3069.43L1436.62,3038.17L1398.73,3038.17L1398.73,2847.18Z" style="fill:rgb(103,101,45);fill-rule:nonzero;stroke:rgb(103,101,45);stroke-width:6.79px;"/>
        </g>
        <g transform="matrix(1.24057,0,0,0.929859,-38.5891,-1470.44)">
            <path d="M1484.87,2847.18C1479.15,2847.18 1474.91,2847.44 1472.14,2847.95C1469.38,2848.45 1467.21,2849.09 1465.63,2849.85C1464.05,2851.12 1463.17,2852.27 1462.97,2853.28C1462.77,2853.54 1462.67,2864.08 1462.67,2884.92L1460.6,3002.72C1460.6,3004.49 1460.55,3007.48 1460.45,3011.68C1460.35,3015.87 1460.26,3020.51 1460.16,3025.59C1460.06,3030.67 1459.96,3035.95 1459.86,3041.41C1459.76,3046.87 1459.71,3051.76 1459.71,3056.09L1459.71,3069.43L1519.51,3069.43L1522.77,3038.17L1484.87,3038.17L1484.87,2847.18Z" style="fill:rgb(103,101,45);fill-rule:nonzero;stroke:rgb(103,101,45);stroke-width:6.88px;"/>
        </g>
        <g transform="matrix(1.44769,0,0,1.01172,-368.544,-1721.72)">
            <path d="M1548.52,2850.62C1547.53,2876.79 1546.89,2904.37 1546.59,2933.34C1546.3,2962.31 1545.95,2990.77 1545.56,3018.73L1545.56,3069.43L1605.65,3069.43L1605.65,3038.17L1574.27,3038.17L1574.27,2973.36L1602.1,2973.36L1602.1,2937.91L1571.02,2937.91L1571.02,2884.16L1612.46,2884.16L1612.46,2851L1608.91,2846.42C1608.71,2846.42 1607.38,2846.36 1604.91,2846.23C1602.44,2846.1 1600.62,2846.04 1599.43,2846.04C1594.7,2846.04 1590.45,2846.17 1586.7,2846.42C1582.96,2846.68 1579.21,2846.99 1575.46,2847.38C1571.71,2847.76 1567.66,2848.2 1563.32,2848.71C1558.98,2849.22 1554.04,2849.85 1548.52,2850.62Z" style="fill:rgb(103,101,45);fill-rule:nonzero;stroke:rgb(103,101,45);stroke-width:6.04px;"/>
        </g>
        <g transform="matrix(1.23242,0,0,0.783454,-26.5779,-1021.65)">
            <path d="M1636.73,2850.62L1669.3,2984.8L1669.3,3068.66L1692.98,3070.19L1694.16,2979.46L1730.28,2834.99L1695.64,2834.99C1695.25,2837.27 1694.56,2841.59 1693.57,2847.95C1692.58,2854.3 1691.55,2861.03 1690.46,2868.15C1689.38,2875.27 1688.34,2882 1687.35,2888.35C1686.37,2894.71 1685.67,2899.03 1685.28,2901.32C1685.28,2901.82 1685.13,2902.84 1684.84,2904.37C1684.54,2905.89 1684.19,2907.54 1683.8,2909.32C1683.4,2911.1 1683.01,2912.75 1682.62,2914.28C1682.22,2915.8 1681.92,2916.82 1681.73,2917.33L1678.17,2914.28L1664.56,2850.62C1663.97,2848.84 1663.03,2847.82 1661.75,2847.57C1660.46,2847.31 1659.13,2847.18 1657.75,2847.18L1654.2,2847.18C1653.41,2847.18 1652.17,2847.38 1650.5,2847.76C1648.82,2848.14 1647.09,2848.52 1645.32,2848.9C1643.54,2849.28 1641.81,2849.66 1640.14,2850.04C1638.46,2850.42 1637.33,2850.62 1636.73,2850.62Z" style="fill:rgb(103,101,45);fill-rule:nonzero;stroke:rgb(103,101,45);stroke-width:7.31px;"/>
        </g>
        <g transform="matrix(1.04962e-16,1.71416,-1.71416,1.04962e-16,1818.32,323.734)">
            <g transform="matrix(1,2.46519e-32,-2.46519e-32,1,-6.48323,-123.183)">
                <path d="M455.107,485.281C453.707,489.612 452.543,494.689 452.522,496.564C452.499,498.438 451.609,502.985 450.541,506.668C449.473,510.351 448.3,515.203 447.935,517.45C447.252,521.645 444.714,525.289 441.839,526.202C439.757,526.862 435.649,523.936 432.507,519.554C430.97,517.41 427.803,513.462 425.468,510.781C420.687,505.289 412.969,494.266 408.402,486.406C404.014,478.856 397.732,455.704 397.732,447.085C397.732,442.362 397.231,439.507 395.452,434.094C394.198,430.278 392.874,424.287 392.51,420.781C391.782,413.767 386.326,396.019 383.236,390.614C382.227,388.85 380.811,385.55 380.088,383.281C378.325,377.742 375.684,372.582 371.837,367.156C370.082,364.681 367.641,360.462 366.414,357.781C365.186,355.1 362.463,350.712 360.362,348.031C358.262,345.35 353.637,339.275 350.084,334.531C346.531,329.787 342.299,324.219 340.679,322.156C335.568,315.648 332.643,308.206 327.866,289.557L326.225,283.149L327.929,277.538C329.525,272.282 330.042,271.524 336.12,265.526C339.74,261.954 346.917,256.16 352.357,252.419C360.406,246.884 364.73,243.091 377.132,230.685C387.835,219.979 393.655,213.499 397.365,208.156C400.229,204.031 404.618,198.462 407.118,195.781C409.618,193.1 414.07,187.531 417.01,183.406C419.951,179.281 424.88,173.459 427.965,170.469C432.757,165.822 433.954,165.031 436.198,165.031C438.06,165.031 439.501,165.664 441.153,167.207C443.399,169.305 443.482,169.607 443.482,175.646C443.482,180.356 444.04,183.862 445.732,189.781L447.982,197.653L447.98,222.03C447.977,236.301 447.658,247.549 447.21,249.163C446.788,250.68 444.85,253.994 442.901,256.528C431.116,271.855 429.234,276.148 429.234,287.703C429.234,292.718 429.767,296.269 431.417,302.247C433.259,308.924 433.685,312.201 434.15,323.281C435.215,348.679 434.457,364.62 431.648,375.887C429.801,383.297 429.73,384.155 430.666,387.887C432.408,394.841 436.883,407.543 438.554,410.279C442.655,416.993 450.057,433.385 453.708,443.838L457.734,455.365L457.695,466.385C457.658,476.815 457.519,477.828 455.109,485.281L455.107,485.281Z" style="fill:rgb(133,124,77);"/>
            </g>
            <g transform="matrix(1,2.46519e-32,-2.46519e-32,1,-6.48323,-123.183)">
                <path d="M438.209,750.594C437.283,752.897 432.583,755.116 430.88,754.055C430.18,753.619 427.582,750.406 425.107,746.915C422.632,743.423 418.383,738.021 415.663,734.911C412.944,731.8 407.441,724.395 403.435,718.455C387.27,694.49 380.377,685.864 365.143,670.531C357.151,662.487 349.277,653.972 347.645,651.609C345.85,649.01 343.409,643.675 341.467,638.109C339.302,631.904 336.973,626.951 334.32,622.906C328.836,614.546 317,603.329 305.857,595.93C294.187,588.181 287.423,583.225 281.857,578.345C279.382,576.175 274.826,572.611 271.732,570.424C261.493,563.188 259.545,559.963 259.903,550.845C260.07,546.612 259.785,545.034 258.358,542.281C255.825,537.395 250.737,532.468 241.357,525.821C236.82,522.606 232.432,519.206 231.607,518.267C229.32,515.663 220.19,509.109 214.732,506.154C196.558,496.313 191.253,492.433 179.397,480.312C164.782,465.371 164.933,464.824 187.976,449.214C192.854,445.91 198.623,441.789 200.795,440.056C202.968,438.324 207.752,434.772 211.426,432.164C215.101,429.555 219.795,426.09 221.857,424.463C223.92,422.835 228.581,419.485 232.215,417.017C238.377,412.833 239.11,412.531 243.09,412.534C251.523,412.54 258.927,419.934 262.027,431.446C263.059,435.278 268.528,441.185 273.086,443.392C277.499,445.528 281.962,449.559 283.702,452.98C286.35,458.185 288.232,465.814 288.232,471.336C288.232,477.007 289.972,484.132 293.802,494.141C295.326,498.127 297.036,500.853 300.054,504.113C305.191,509.662 308.665,511.731 316.357,513.826C323.548,515.784 326.582,517.265 330.733,520.846C334.576,524.161 340.215,531.95 341.97,536.367C342.688,538.176 343.864,540.669 344.583,541.906C346.318,544.894 348.982,554.689 348.982,558.079C348.982,561.184 354.86,581.918 356.807,585.684C358.851,589.637 363.728,594.499 370.28,599.116C382.164,607.491 385.61,612.47 386.438,622.459C387.099,630.44 388.057,632.474 398.481,648.014C416.601,675.028 425.814,691.669 428.18,701.656C428.864,704.544 430.393,710.619 431.579,715.156C432.764,719.694 433.734,724.172 433.733,725.108C433.733,726.043 434.914,730.463 436.357,734.929C438.976,743.03 439.493,747.4 438.209,750.594Z" style="fill:rgb(211,200,109);"/>
            </g>
            <g transform="matrix(1,2.46519e-32,-2.46519e-32,1,-6.48323,-123.183)">
                <path d="M431.857,611.181C430.257,612.586 428.361,613.529 427.144,613.527C425.238,613.521 424.327,613.161 418.949,610.279C414.353,607.817 406.348,604.336 402.982,603.337C400.513,602.603 398.481,601.259 396.353,598.95C392.872,595.173 392.681,594.565 392.225,585.781C391.967,580.808 391.074,576.851 388.163,567.781C382.385,549.78 381.928,548.909 364.531,522.781C360.378,516.543 355.805,511.389 342.533,497.986C325.816,481.105 325.77,481.049 322.321,473.611C317.771,463.797 316.469,462.217 308.159,456.423C301.008,451.437 297.379,447.941 295.417,444.147C294.235,441.86 289.353,425.119 288.577,420.687C287.761,416.031 285.306,413.021 268.621,396.218C251.7,379.178 248.084,374.633 247.359,369.496C246.716,364.94 249.32,356.87 253.317,351.031C255.152,348.35 262.662,340.196 270.005,332.912C281.192,321.815 283.874,319.53 286.545,318.82C294.349,316.747 299.626,320.53 326.569,347.51C349.006,369.978 349.972,371.21 349.82,377.156C349.781,378.669 349.549,387.169 349.304,396.045L348.858,412.184L351.491,417.234C354.041,422.127 360.087,430.983 367.738,441.031C376.302,452.278 386.446,475.598 386.496,484.151C386.504,485.391 387.509,489.781 388.732,493.906C390.018,498.243 390.962,503.174 390.969,505.598C390.981,509.556 393.33,518.733 396.037,525.406C398.083,530.447 400.481,533.035 408.132,538.46C416.243,544.211 418.332,546.333 423.07,553.637C427.442,560.375 429.232,566.98 429.232,576.37C429.232,582.307 429.68,585.459 431.417,591.747C432.618,596.097 433.811,601.72 434.068,604.243C434.53,608.791 434.511,608.851 431.857,611.181Z" style="fill:rgb(177,174,114);"/>
            </g>
        </g>
    </g>
</svg>
