<?xml version="1.0" encoding="UTF-8" standalone="no"?>
<!DOCTYPE svg PUBLIC "-//W3C//DTD SVG 1.1//EN" "http://www.w3.org/Graphics/SVG/1.1/DTD/svg11.dtd">
<svg width="100%" height="100%" viewBox="0 0 50 50" version="1.1" xmlns="http://www.w3.org/2000/svg" xmlns:xlink="http://www.w3.org/1999/xlink" xml:space="preserve" xmlns:serif="http://www.serif.com/" style="fill-rule:evenodd;clip-rule:evenodd;stroke-linejoin:round;stroke-miterlimit:2;">
    <g transform="matrix(1,0,0,1,-100,0)">
        <rect id="Artboard2" x="100" y="0" width="50" height="50" style="fill:none;"/>
        <clipPath id="_clip1">
            <rect id="Artboard21" serif:id="Artboard2" x="100" y="0" width="50" height="50"/>
        </clipPath>
        <g clip-path="url(#_clip1)">
            <g transform="matrix(0.423333,0,0,0.423333,-127.031,-400)">
                <g transform="matrix(1,0,0,1,150.169,0)">
                    <rect x="386.124" y="944.882" width="118.11" height="118.11" style="fill:rgb(133,124,77);"/>
                </g>
                <g id="path1009" transform="matrix(0.0905393,0,0,0.0905393,524.557,946.015)">
                    <path d="M283.94,167.31L670.33,683.95L281.5,1104L369.01,1104L709.43,736.24L984.48,1104L1282.28,1104L874.15,558.3L1236.07,167.31L1148.56,167.31L835.05,506.01L581.74,167.31L283.94,167.31ZM412.63,231.77L549.44,231.77L1153.57,1039.53L1016.76,1039.53L412.63,231.77Z" style="fill:white;fill-rule:nonzero;stroke:white;stroke-width:26.09px;"/>
                </g>
            </g>
        </g>
    </g>
</svg>
